<?xml version="1.0"?>
<svg xmlns="http://www.w3.org/2000/svg" xmlns:xlink="http://www.w3.org/1999/xlink" xmlns:svgjs="http://svgjs.com/svgjs" version="1.1" width="512" height="512" x="0" y="0" viewBox="0 0 464 464" style="enable-background:new 0 0 512 512" xml:space="preserve" class=""><g><path xmlns="http://www.w3.org/2000/svg" d="m51.097656 112h30.664063l20-80h-23.992188zm0 0" fill="#673ab7" data-original="#000000" style="" class=""/><path xmlns="http://www.w3.org/2000/svg" d="m48 144c0 8.824219 7.175781 16 16 16s16-7.175781 16-16v-16h-32zm0 0" fill="#673ab7" data-original="#000000" style="" class=""/><path xmlns="http://www.w3.org/2000/svg" d="m135.3125 32h-17.074219l-19.992187 80h30.417968zm0 0" fill="#673ab7" data-original="#000000" style="" class=""/><path xmlns="http://www.w3.org/2000/svg" d="m96 144c0 8.824219 7.175781 16 16 16s16-7.175781 16-16v-16h-32zm0 0" fill="#673ab7" data-original="#000000" style="" class=""/><path xmlns="http://www.w3.org/2000/svg" d="m192 32v80h31.328125l-6.679687-80zm0 0" fill="#673ab7" data-original="#000000" style="" class=""/><path xmlns="http://www.w3.org/2000/svg" d="m144 144c0 8.824219 7.175781 16 16 16s16-7.175781 16-16v-16h-32zm0 0" fill="#673ab7" data-original="#000000" style="" class=""/><path xmlns="http://www.w3.org/2000/svg" d="m176 32h-24.640625l-6.671875 80h31.3125zm0 0" fill="#673ab7" data-original="#000000" style="" class=""/><path xmlns="http://www.w3.org/2000/svg" d="m192 144c0 8.824219 7.175781 16 16 16s16-7.175781 16-16v-16h-32zm0 0" fill="#673ab7" data-original="#000000" style="" class=""/><path xmlns="http://www.w3.org/2000/svg" d="m328 292.902344 7.542969 5.035156c2.738281-1.425781 5.578125-2.648438 8.457031-3.769531v-119.304688c-6.320312-1.640625-11.832031-5.144531-16-9.917969zm0 0" fill="#673ab7" data-original="#000000" style="" class=""/><path xmlns="http://www.w3.org/2000/svg" d="m333.769531 112h30.230469l-33.335938-80h-23.558593zm0 0" fill="#673ab7" data-original="#000000" style="" class=""/><path xmlns="http://www.w3.org/2000/svg" d="m368 144v-16h-32v16c0 8.824219 7.175781 16 16 16s16-7.175781 16-16zm0 0" fill="#673ab7" data-original="#000000" style="" class=""/><path xmlns="http://www.w3.org/2000/svg" d="m279.214844 400-7.214844-1.441406v-45.109375l6.742188-1.351563c-2.421876-7.226562-8.191407-12.976562-15.847657-15.273437l-52.621093-15.785157-26.273438 26.273438-26.28125-26.28125-52.621094 15.785156c-10.226562 3.078125-17.097656 12.3125-17.097656 23v40.183594h32v-40h16v40h96v-40h16v40zm0 0" fill="#673ab7" data-original="#000000" style="" class=""/><path xmlns="http://www.w3.org/2000/svg" d="m312 174.863281c-2.574219.671875-5.222656 1.136719-8 1.136719-9.609375 0-18.128906-4.335938-24-11.054688-5.871094 6.71875-14.390625 11.054688-24 11.054688s-18.128906-4.335938-24-11.054688c-5.871094 6.71875-14.390625 11.054688-24 11.054688s-18.128906-4.335938-24-11.054688c-5.871094 6.71875-14.390625 11.054688-24 11.054688s-18.128906-4.335938-24-11.054688c-5.871094 6.71875-14.390625 11.054688-24 11.054688s-18.128906-4.335938-24-11.054688c-5.871094 6.71875-14.390625 11.054688-24 11.054688-2.777344 0-5.425781-.464844-8-1.136719v225.136719h16v-40.183594c0-17.808594 11.457031-33.199218 28.503906-38.320312l51.496094-15.449219v-14.367187c-9.792969-8.792969-16-21.503907-16-35.679688v-24c0-26.472656 21.527344-48 48-48s48 21.527344 48 48v24c0 14.167969-6.207031 26.878906-16 35.679688v14.367187l51.496094 15.449219c12.375 3.710937 21.734375 12.878906 25.976562 24.414062 1.289063-3.542968 2.734375-7.023437 4.472656-10.367187l-11.433593-17.144531 25.488281-25.476563zm0 0" fill="#673ab7" data-original="#000000" style="" class=""/><path xmlns="http://www.w3.org/2000/svg" d="m168 301.199219v7.488281l16 16 16-16v-7.488281c-5.015625 1.785156-10.382812 2.800781-16 2.800781s-10.984375-1.015625-16-2.800781zm0 0" fill="#673ab7" data-original="#000000" style="" class=""/><path xmlns="http://www.w3.org/2000/svg" d="m216 256v-24c0-17.648438-14.351562-32-32-32s-32 14.351562-32 32v24c0 17.648438 14.351562 32 32 32s32-14.351562 32-32zm0 0" fill="#673ab7" data-original="#000000" style="" class=""/><path xmlns="http://www.w3.org/2000/svg" d="m32 144v-16h-32v16c0 8.824219 7.175781 16 16 16s16-7.175781 16-16zm0 0" fill="#673ab7" data-original="#000000" style="" class=""/><path xmlns="http://www.w3.org/2000/svg" d="m60.894531 32h-23.558593l-33.335938 80h30.230469zm0 0" fill="#673ab7" data-original="#000000" style="" class=""/><path xmlns="http://www.w3.org/2000/svg" d="m297.9375 416.457031c-.082031-.144531-.136719-.304687-.210938-.457031h-257.726562v-251.054688c-4.167969 4.773438-9.679688 8.277344-16 9.917969v289.136719h292.910156l-30.40625-30.40625zm-241.9375 31.542969h-16v-16h16zm32 0h-16v-16h16zm32 0h-16v-16h16zm0 0" fill="#673ab7" data-original="#000000" style="" class=""/><path xmlns="http://www.w3.org/2000/svg" d="m335.542969 454.0625-14.902344 9.9375h29.589844l-.839844-4.191406c-4.773437-1.519532-9.40625-3.441406-13.847656-5.746094zm0 0" fill="#673ab7" data-original="#000000" style="" class=""/><path xmlns="http://www.w3.org/2000/svg" d="m446.945312 363.152344-1.242187-4.886719c-1.710937-6.707031-4.359375-13.097656-7.871094-18.992187l-2.574219-4.328126 9.644532-14.488281-13.351563-13.351562-14.488281 9.648437-4.328125-2.578125c-5.894531-3.511719-12.285156-6.167969-18.992187-7.871093l-4.886719-1.242188-3.40625-17.054688h-18.890625l-3.40625 17.054688-4.886719 1.242188c-6.707031 1.710937-13.097656 4.359374-18.992187 7.871093l-4.328126 2.578125-14.488281-9.648437-13.351562 13.351562 9.648437 14.488281-2.578125 4.328126c-3.511719 5.894531-6.167969 12.285156-7.871093 18.992187l-1.242188 4.886719-17.0625 3.40625v18.890625l17.054688 3.40625 1.242187 4.886719c1.710937 6.707031 4.359375 13.097656 7.871094 18.992187l2.574219 4.328125-9.644532 14.488281 13.351563 13.351563 14.488281-9.644532 4.328125 2.574219c5.894531 3.511719 12.285156 6.167969 18.992187 7.871094l4.886719 1.242187 3.40625 17.054688h18.890625l3.40625-17.054688 4.886719-1.242187c6.707031-1.710937 13.097656-4.359375 18.992187-7.871094l4.328126-2.574219 14.488281 9.644532 13.351562-13.351563-9.648437-14.488281 2.578125-4.328125c3.511719-5.894531 6.167969-12.285156 7.871093-18.992187l1.242188-4.886719 17.0625-3.40625v-18.890625zm-70.945312 68.847656c-30.871094 0-56-25.128906-56-56 0-11.664062 3.59375-22.871094 10.390625-32.425781l13.035156 9.28125c-4.859375 6.824219-7.425781 14.824219-7.425781 23.144531 0 22.054688 17.945312 40 40 40 8.320312 0 16.320312-2.566406 23.144531-7.425781l9.28125 13.035156c-9.554687 6.796875-20.761719 10.390625-32.425781 10.390625zm45.609375-23.574219-13.035156-9.28125c4.859375-6.824219 7.425781-14.824219 7.425781-23.144531 0-22.054688-17.945312-40-40-40-8.320312 0-16.320312 2.566406-23.144531 7.425781l-9.28125-13.035156c9.546875-6.796875 20.761719-10.390625 32.425781-10.390625 30.871094 0 56 25.128906 56 56 0 11.664062-3.59375 22.878906-10.390625 32.425781zm0 0" fill="#673ab7" data-original="#000000" style="" class=""/><path xmlns="http://www.w3.org/2000/svg" d="m316.902344 112-26.671875-80h-24.015625l19.808594 80zm0 0" fill="#673ab7" data-original="#000000" style="" class=""/><path xmlns="http://www.w3.org/2000/svg" d="m40 0h288v16h-288zm0 0" fill="#673ab7" data-original="#000000" style="" class=""/><path xmlns="http://www.w3.org/2000/svg" d="m240 144c0 8.824219 7.175781 16 16 16s16-7.175781 16-16v-16h-32zm0 0" fill="#673ab7" data-original="#000000" style="" class=""/><path xmlns="http://www.w3.org/2000/svg" d="m232.6875 32 6.671875 80h30.394531l-19.992187-80zm0 0" fill="#673ab7" data-original="#000000" style="" class=""/><path xmlns="http://www.w3.org/2000/svg" d="m320 144v-16h-32v16c0 8.824219 7.175781 16 16 16s16-7.175781 16-16zm0 0" fill="#673ab7" data-original="#000000" style="" class=""/></g></svg>
